<?xml version="1.0" encoding="UTF-8"?>
<svg width="65px" height="59px" viewBox="0 0 65 59" version="1.1" xmlns="http://www.w3.org/2000/svg" xmlns:xlink="http://www.w3.org/1999/xlink">
    <!-- Generator: Sketch 64 (93537) - https://sketch.com -->
    <title>wdes-widget-blog</title>
    <desc>Created with Sketch.</desc>
    <g id="Page-1" stroke="none" stroke-width="1" fill="none" fill-rule="evenodd">
        <g id="wdes-widget-blog" fill-rule="nonzero">
            <path d="M65,50.016 C65,54.437 61.418,58.022 57,58.022 L15,58.022 C10.581,58.022 7,54.437 7,50.016 L7,13.987 C7,9.565 10.581,5.981 15,5.981 L57,5.981 C61.418,5.981 65,9.565 65,13.987 L65,50.016 Z" id="path-1_25_" fill="#22C1C3"></path>
            <path d="M65,18.992 L65,13.165 C65,8.912 61.455,5.982 57.206,5.982 L14.885,5.982 C10.635,5.982 7,8.912 7,13.165 L7,18.992 L65,18.992 L65,18.992 Z" id="path-2_25_" fill="#FDBB2D"></path>
            <path d="M51.5,56.021 L9.5,56.021 C4.262,56.021 0,51.756 0,46.514 L0,10.485 C0,5.242 4.262,0.977 9.5,0.977 L51.5,0.977 C56.738,0.977 61,5.242 61,10.485 L61,46.513 C61,51.755 56.738,56.021 51.5,56.021 Z M9.5,3.98 C5.916,3.98 3,6.898 3,10.485 L3,46.513 C3,50.1 5.916,53.018 9.5,53.018 L51.5,53.018 C55.084,53.018 58,50.1 58,46.513 L58,10.485 C58,6.898 55.084,3.98 51.5,3.98 L9.5,3.98 Z" id="path-3_25_" fill="#000000"></path>
            <path d="M59.5,17.992 L1.5,17.992 C0.671,17.992 0,17.32 0,16.49 L0,10.277 C0,5.237 4.394,0.978 9.595,0.978 L51.915,0.978 C56.925,0.978 61,5.15 61,10.277 L61,16.49 C61,17.319 60.329,17.992 59.5,17.992 Z M3,14.989 L58,14.989 L58,10.277 C58,6.806 55.27,3.9809995 51.915,3.9809995 L9.595,3.9809995 C6.081,3.98 3,6.922 3,10.276 L3,14.989 Z" id="path-4_25_" fill="#000000"></path>
            <path d="M13.111,9.777 C13.111,10.715 12.352,11.476 11.414,11.476 C10.477,11.476 9.717,10.715 9.717,9.777 C9.717,8.838 10.477,8.078 11.414,8.078 C12.352,8.078 13.111,8.839 13.111,9.777 Z" id="path-5_25_" fill="#000000"></path>
            <path d="M18.769,9.777 C18.769,10.715 18.009,11.476 17.072,11.476 C16.134,11.476 15.374,10.715 15.374,9.777 C15.374,8.838 16.134,8.078 17.072,8.078 C18.009,8.078 18.769,8.839 18.769,9.777 Z" id="path-6_25_" fill="#000000"></path>
            <path d="M24.427,9.777 C24.427,10.715 23.667,11.476 22.729,11.476 C21.792,11.476 21.032,10.715 21.032,9.777 C21.032,8.838 21.792,8.078 22.729,8.078 C23.667,8.078 24.427,8.839 24.427,9.777 Z" id="path-7_25_" fill="#000000"></path>
            <g id="click-(2)" transform="translate(23.000000, 27.000000)" fill="#000000">
                <path d="M20,13.913269 C20,14.1049194 19.874115,14.2700195 19.7000122,14.3266296 L15.6524658,15.6524658 L14.3266296,19.7000122 C14.269104,19.874115 14.1041565,20 13.913269,20 C13.726654,20 13.5699463,19.8825073 13.5090637,19.7216797 L10.0308227,10.5915832 C10.0082397,10.5432129 10,10.4916382 10,10.4348755 C10,10.1957703 10.1957703,10 10.4348755,10 C10.4916382,10 10.5432129,10.0082397 10.5915832,10.0308227 L19.7224426,13.5090637 C19.8825073,13.5691833 20,13.7257385 20,13.913269 L20,13.913269 Z" id="Path"></path>
                <path d="M8.49992217,17 C3.81315975,17 0,13.1868403 0,8.49992217 C0,3.81315975 3.81315975,0 8.49992217,0 C13.1868403,0 17,3.81315975 17,8.49992217 C17,8.62661247 16.9990661,8.75330274 16.9889496,8.88077123 C16.9514406,9.3490895 16.5545607,9.70098966 16.0742582,9.66114603 C15.6068737,9.62457085 15.2574638,9.21477292 15.294039,8.74645462 C15.3007315,8.66489969 15.2999533,8.58241095 15.2999533,8.49992217 C15.2999533,4.7505745 12.2492699,1.7000467 8.49992217,1.7000467 C4.7505745,1.7000467 1.7000467,4.7505745 1.7000467,8.49992217 C1.7000467,12.2492699 4.7505745,15.2999533 8.49992217,15.2999533 C8.58163272,15.3007315 8.67330422,15.3007315 8.75843882,15.2948172 C9.22924735,15.2643119 9.63468739,15.6101422 9.66955056,16.0786161 C9.70534759,16.5469344 9.35422562,16.9548646 8.88590732,16.9897278 C8.76092905,16.9990661 8.62490043,17 8.49992217,17 Z" id="Path"></path>
            </g>
        </g>
    </g>
</svg>