<?xml version="1.0" encoding="UTF-8"?>
<svg width="65px" height="59px" viewBox="0 0 65 59" version="1.1" xmlns="http://www.w3.org/2000/svg" xmlns:xlink="http://www.w3.org/1999/xlink">
    <!-- Generator: Sketch 63.1 (92452) - https://sketch.com -->
    <title>Testimonials</title>
    <desc>Created with Sketch.</desc>
    <g id="Page-1" stroke="none" stroke-width="1" fill="none" fill-rule="evenodd">
        <g id="Icons-dark" transform="translate(-29.000000, -267.000000)" fill-rule="nonzero">
            <g id="Testimonials" transform="translate(29.000000, 267.000000)">
                <path d="M65,50.016 C65,54.437 61.418,58.022 57,58.022 L15,58.022 C10.581,58.022 7,54.437 7,50.016 L7,13.987 C7,9.565 10.581,5.981 15,5.981 L57,5.981 C61.418,5.981 65,9.565 65,13.987 L65,50.016 Z" id="path-1_25_" fill="#22C1C3"></path>
                <path d="M65,18.992 L65,13.165 C65,8.912 61.455,5.982 57.206,5.982 L14.885,5.982 C10.635,5.982 7,8.912 7,13.165 L7,18.992 L65,18.992 L65,18.992 Z" id="path-2_25_" fill="#FDBB2D"></path>
                <path d="M51.5,56.021 L9.5,56.021 C4.262,56.021 0,51.756 0,46.514 L0,10.485 C0,5.242 4.262,0.977 9.5,0.977 L51.5,0.977 C56.738,0.977 61,5.242 61,10.485 L61,46.513 C61,51.755 56.738,56.021 51.5,56.021 Z M9.5,3.98 C5.916,3.98 3,6.898 3,10.485 L3,46.513 C3,50.1 5.916,53.018 9.5,53.018 L51.5,53.018 C55.084,53.018 58,50.1 58,46.513 L58,10.485 C58,6.898 55.084,3.98 51.5,3.98 L9.5,3.98 Z" id="path-3_25_" fill="#000000"></path>
                <path d="M59.5,17.992 L1.5,17.992 C0.671,17.992 0,17.32 0,16.49 L0,10.277 C0,5.237 4.394,0.978 9.595,0.978 L51.915,0.978 C56.925,0.978 61,5.15 61,10.277 L61,16.49 C61,17.319 60.329,17.992 59.5,17.992 Z M3,14.989 L58,14.989 L58,10.277 C58,6.806 55.27,3.98099975 51.915,3.98099975 L9.595,3.98099975 C6.081,3.98 3,6.922 3,10.276 L3,14.989 Z" id="path-4_25_" fill="#000000"></path>
                <path d="M13.111,9.777 C13.111,10.715 12.352,11.476 11.414,11.476 C10.477,11.476 9.717,10.715 9.717,9.777 C9.717,8.838 10.477,8.078 11.414,8.078 C12.352,8.078 13.111,8.839 13.111,9.777 Z" id="path-5_25_" fill="#000000"></path>
                <path d="M18.769,9.777 C18.769,10.715 18.009,11.476 17.072,11.476 C16.134,11.476 15.374,10.715 15.374,9.777 C15.374,8.838 16.134,8.078 17.072,8.078 C18.009,8.078 18.769,8.839 18.769,9.777 Z" id="path-6_25_" fill="#000000"></path>
                <path d="M24.427,9.777 C24.427,10.715 23.667,11.476 22.729,11.476 C21.792,11.476 21.032,10.715 21.032,9.777 C21.032,8.838 21.792,8.078 22.729,8.078 C23.667,8.078 24.427,8.839 24.427,9.777 Z" id="path-7_25_" fill="#000000"></path>
                <g id="quote" transform="translate(23.000000, 28.000000)" fill="#000000">
                    <path d="M5.81710778,6.60375957 C5.36945784,6.48003402 4.92180791,6.41725612 4.48635967,6.41725612 C3.81393151,6.41725612 3.25284388,6.56477504 2.81777695,6.74542166 C3.23721045,5.2713306 4.24480411,2.72781887 6.25198406,2.44138325 C6.43786936,2.41484448 6.59019998,2.28581118 6.64091331,2.11211955 L7.07960262,0.605815919 C7.11658903,0.478429853 7.09466409,0.342075514 7.01897541,0.231527836 C6.94328673,0.120980158 6.82165101,0.047220697 6.68533513,0.0292841532 C6.53719884,0.0098834017 6.38620278,0 6.23654128,0 C3.82727712,0 1.44127246,2.41411238 0.434441407,5.87074061 C-0.156578525,7.89866822 -0.329880822,10.9475146 1.12593473,12.8665418 C1.94058898,13.9403551 3.129111,14.5137754 4.65851806,14.5710625 C4.66480956,14.5712455 4.67091041,14.5714286 4.67720192,14.5714286 C6.56427137,14.5714286 8.23762038,13.3513775 8.74666013,11.6047608 C9.05074942,10.5605977 8.91328962,9.46555344 8.3592561,8.52059042 C7.81113277,7.58624291 6.90839749,6.90520332 5.81710778,6.60375957 Z" id="Path"></path>
                    <path d="M16.4544266,8.52066642 C15.9062965,7.58614762 15.0035499,6.90511659 13.9122466,6.60367662 C13.4645911,6.47995263 13.0169356,6.41717551 12.5816726,6.41717551 C11.9092361,6.41717551 11.3479508,6.56469258 10.9128784,6.74533693 C11.3323172,5.27126439 12.3399234,2.72778461 14.347319,2.44135258 C14.5332066,2.41481415 14.6853485,2.28578247 14.7362531,2.11209302 L15.1749479,0.60580831 C15.2119347,0.478423843 15.1900095,0.342071218 15.1143199,0.231524928 C15.0388209,0.120978638 14.9171837,0.0472201039 14.7806755,0.0292837854 C14.632728,0.00988327756 14.48173,0 14.331876,0 C11.9225818,0 9.53654746,2.41408206 8.52951321,5.87066687 C7.93867657,7.89856901 7.76537211,10.9473771 9.22139645,12.8667462 C10.0358702,13.940363 11.2245977,14.5139591 12.7538331,14.5710625 C12.7601247,14.5712455 12.7662256,14.5714286 12.7727079,14.5714286 C14.6596102,14.5714286 16.3331707,13.3513929 16.8422168,11.6047981 C17.1459286,10.5606481 17.0082764,9.46543455 16.4544266,8.52066642 Z" id="Path"></path>
                </g>
            </g>
        </g>
    </g>
</svg>