<?xml version="1.0" encoding="UTF-8"?>
<svg width="65px" height="59px" viewBox="0 0 65 59" version="1.1" xmlns="http://www.w3.org/2000/svg" xmlns:xlink="http://www.w3.org/1999/xlink">
    <title>wdes-widget-blog</title>
    <g id="Page-1" stroke="none" stroke-width="1" fill="none" fill-rule="evenodd">
        <g id="wdes-widget-blog" fill-rule="nonzero">
            <path d="M65,50.016 C65,54.437 61.418,58.022 57,58.022 L15,58.022 C10.581,58.022 7,54.437 7,50.016 L7,13.987 C7,9.565 10.581,5.981 15,5.981 L57,5.981 C61.418,5.981 65,9.565 65,13.987 L65,50.016 Z" id="path-1_25_" fill="#22C1C3"></path>
            <path d="M65,18.992 L65,13.165 C65,8.912 61.455,5.982 57.206,5.982 L14.885,5.982 C10.635,5.982 7,8.912 7,13.165 L7,18.992 L65,18.992 L65,18.992 Z" id="path-2_25_" fill="#FDBB2D"></path>
            <path d="M51.5,56.021 L9.5,56.021 C4.262,56.021 0,51.756 0,46.514 L0,10.485 C0,5.242 4.262,0.977 9.5,0.977 L51.5,0.977 C56.738,0.977 61,5.242 61,10.485 L61,46.513 C61,51.755 56.738,56.021 51.5,56.021 Z M9.5,3.98 C5.916,3.98 3,6.898 3,10.485 L3,46.513 C3,50.1 5.916,53.018 9.5,53.018 L51.5,53.018 C55.084,53.018 58,50.1 58,46.513 L58,10.485 C58,6.898 55.084,3.98 51.5,3.98 L9.5,3.98 Z" id="path-3_25_" fill="#000000"></path>
            <path d="M59.5,17.992 L1.5,17.992 C0.671,17.992 0,17.32 0,16.49 L0,10.277 C0,5.237 4.394,0.978 9.595,0.978 L51.915,0.978 C56.925,0.978 61,5.15 61,10.277 L61,16.49 C61,17.319 60.329,17.992 59.5,17.992 Z M3,14.989 L58,14.989 L58,10.277 C58,6.806 55.27,3.9809995 51.915,3.9809995 L9.595,3.9809995 C6.081,3.98 3,6.922 3,10.276 L3,14.989 Z" id="path-4_25_" fill="#000000"></path>
            <path d="M13.111,9.777 C13.111,10.715 12.352,11.476 11.414,11.476 C10.477,11.476 9.717,10.715 9.717,9.777 C9.717,8.838 10.477,8.078 11.414,8.078 C12.352,8.078 13.111,8.839 13.111,9.777 Z" id="path-5_25_" fill="#000000"></path>
            <path d="M18.769,9.777 C18.769,10.715 18.009,11.476 17.072,11.476 C16.134,11.476 15.374,10.715 15.374,9.777 C15.374,8.838 16.134,8.078 17.072,8.078 C18.009,8.078 18.769,8.839 18.769,9.777 Z" id="path-6_25_" fill="#000000"></path>
            <path d="M24.427,9.777 C24.427,10.715 23.667,11.476 22.729,11.476 C21.792,11.476 21.032,10.715 21.032,9.777 C21.032,8.838 21.792,8.078 22.729,8.078 C23.667,8.078 24.427,8.839 24.427,9.777 Z" id="path-7_25_" fill="#000000"></path>
            <g id="Group-2" transform="translate(15.549000, 26.518000)">
                <path d="M31.2786322,0.482 L3.62336776,0.482 C1.87121247,0.482 0.451,1.89198741 0.451,3.63128109 L0.451,13.968428 C0.451,15.7078321 1.87143495,17.1177091 3.62336776,17.1177091 L16.7847227,17.1177091 L22.6177501,20.482 L21.4528355,17.1177091 L31.2786322,17.1177091 C33.0307875,17.1177091 34.451,15.7077217 34.451,13.968428 L34.451,3.63128109 C34.451,1.89187698 33.0306763,0.482 31.2786322,0.482 Z" id="Path" fill="#000000"></path>
                <g id="Group" transform="translate(1.451000, 2.482000)" fill="#FFFFFF">
                    <path d="M3.48165942,12.9924793 C3.47682971,12.9924793 3.47222464,12.9924793 3.46750725,12.9924793 C3.08247826,12.9879669 2.72406884,12.8039256 2.50751812,12.4993388 C2.16550725,12.0182314 1.66411594,10.9090413 0.816108696,6.56607438 C0.361554348,4.23832231 0.0198804348,2.04615702 0.0165108696,2.02434711 C-0.0791847826,1.40872727 0.365036232,0.835652893 1.00862319,0.744115702 C1.65176087,0.652471074 2.25131884,1.07738843 2.34701449,1.6931157 C2.35027174,1.71449587 2.68430797,3.8564876 3.12875362,6.1351405 C3.38551449,7.45136364 3.60509783,8.43323967 3.78750362,9.16381818 C4.89833696,7.20565289 6.25425,4.57234711 6.85111232,3.3831157 C7.06968478,2.94777686 7.55377899,2.69400826 8.05539493,2.75234711 C8.55678623,2.81068595 8.96326812,3.16813223 9.06637681,3.64096694 C9.26147464,4.53356198 9.76690942,6.39223967 10.4849638,8.0792314 C10.7498116,5.68067769 11.2623225,2.6367438 12.2393841,0.720801653 C12.5245616,0.161479339 13.2299239,-0.0708016529 13.8146558,0.202090909 C14.3993877,0.474983471 14.642221,1.14958678 14.3569312,1.70890909 C12.803337,4.75542149 12.5707246,11.6952727 12.5684783,11.7651074 C12.5545507,12.2146281 12.2625217,12.6131157 11.8256014,12.7788926 C11.3885688,12.9447769 10.8904348,12.8463636 10.557971,12.5283471 C9.50251087,11.5187521 8.54038768,9.77890083 7.6981087,7.3571405 C7.66171739,7.25238843 7.62633696,7.14871074 7.59185507,7.04632231 C6.55919565,9.01222314 5.20171014,11.5030661 4.43962681,12.5217934 C4.21813406,12.8172479 3.8612971,12.9924793 3.48165942,12.9924793 Z" id="Path"></path>
                    <path d="M21.7695254,3.48303306 C21.2789167,2.52995041 20.4363007,1.87092562 19.3354638,1.57794215 C18.0797391,1.24456198 16.7194457,1.68795868 15.6961087,2.76566942 C14.4813804,4.04203306 13.5952971,6.43435537 14.7501594,9.31723967 C15.541221,11.2930248 16.7852645,11.6556281 17.5891304,11.6556281 C17.6759529,11.6556281 17.7569348,11.6511157 17.8320761,11.6444545 C19.9715254,11.4502066 21.7684022,8.74244628 22.1145688,6.88570248 C22.3633551,5.55540496 22.2472174,4.41033058 21.7695254,3.48303306 Z M19.7955217,6.48936364 C19.6863478,7.0697438 19.3072717,7.83760331 18.8273333,8.44495041 C18.3343659,9.07023967 17.8508333,9.37901653 17.6102464,9.40028926 C17.463558,9.41371901 17.1912971,9.11289256 16.9507101,8.51113223 C16.4671775,7.30546281 16.3052138,5.47332231 17.4389601,4.28108264 C17.7769275,3.92524793 18.1701558,3.7242314 18.5081232,3.7242314 C18.5761884,3.7242314 18.6418949,3.73207438 18.7041196,3.74894215 C19.9656848,4.08468595 19.9937645,5.42400826 19.7955217,6.48936364 Z" id="Shape"></path>
                    <path d="M30.5211848,3.48303306 C30.2747572,3.00708264 29.9413949,2.60290083 29.5330036,2.28295041 C29.1222536,1.963 28.6363623,1.72502479 28.0858877,1.57794215 C26.8312862,1.24456198 25.4711051,1.68795868 24.4465326,2.76566942 C23.2330399,4.04203306 22.3469565,6.43435537 23.5005833,9.31723967 C24.2916449,11.2930248 25.5356884,11.6556281 26.3395543,11.6556281 C26.4263768,11.6556281 26.5085942,11.6511157 26.5836232,11.6444545 C28.7219493,11.4502066 30.5187138,8.74244628 30.8649928,6.88570248 C31.1138913,5.55540496 30.9976413,4.41033058 30.5211848,3.48303306 Z M28.5459457,6.48936364 C28.4380072,7.0697438 28.0576957,7.83760331 27.5788804,8.44495041 C27.0847899,9.07023967 26.6012572,9.37901653 26.3606703,9.40028926 C26.2151051,9.41371901 25.941721,9.11289256 25.7011341,8.51113223 C25.2187246,7.30546281 25.0568732,5.47332231 26.1893841,4.28108264 C26.528587,3.92524793 26.9217029,3.7242314 27.2585471,3.7242314 C27.3266123,3.7242314 27.3923188,3.73207438 27.4556667,3.74894215 C28.7173442,4.08468595 28.7443007,5.42400826 28.5459457,6.48936364 Z" id="Shape"></path>
                </g>
            </g>
        </g>
    </g>
</svg>