<?xml version="1.0" encoding="UTF-8"?>
<svg width="65px" height="59px" viewBox="0 0 65 59" version="1.1" xmlns="http://www.w3.org/2000/svg" xmlns:xlink="http://www.w3.org/1999/xlink">
    <title>wdes-widget-world-map</title>
    <g id="Page-1" stroke="none" stroke-width="1" fill="none" fill-rule="evenodd">
        <g id="wdes-widget-world-map" fill-rule="nonzero">
            <path d="M65,50.016 C65,54.437 61.418,58.022 57,58.022 L15,58.022 C10.581,58.022 7,54.437 7,50.016 L7,13.987 C7,9.565 10.581,5.981 15,5.981 L57,5.981 C61.418,5.981 65,9.565 65,13.987 L65,50.016 Z" id="path-1_25_" fill="#22C1C3"></path>
            <path d="M65,18.992 L65,13.165 C65,8.912 61.455,5.982 57.206,5.982 L14.885,5.982 C10.635,5.982 7,8.912 7,13.165 L7,18.992 L65,18.992 L65,18.992 Z" id="path-2_25_" fill="#FDBB2D"></path>
            <path d="M51.5,56.021 L9.5,56.021 C4.262,56.021 0,51.756 0,46.514 L0,10.485 C0,5.242 4.262,0.977 9.5,0.977 L51.5,0.977 C56.738,0.977 61,5.242 61,10.485 L61,46.513 C61,51.755 56.738,56.021 51.5,56.021 Z M9.5,3.98 C5.916,3.98 3,6.898 3,10.485 L3,46.513 C3,50.1 5.916,53.018 9.5,53.018 L51.5,53.018 C55.084,53.018 58,50.1 58,46.513 L58,10.485 C58,6.898 55.084,3.98 51.5,3.98 L9.5,3.98 Z" id="path-3_25_" fill="#000000"></path>
            <path d="M59.5,17.992 L1.5,17.992 C0.671,17.992 0,17.32 0,16.49 L0,10.277 C0,5.237 4.394,0.978 9.595,0.978 L51.915,0.978 C56.925,0.978 61,5.15 61,10.277 L61,16.49 C61,17.319 60.329,17.992 59.5,17.992 Z M3,14.989 L58,14.989 L58,10.277 C58,6.806 55.27,3.980999 51.915,3.980999 L9.595,3.980999 C6.081,3.98 3,6.922 3,10.276 L3,14.989 Z" id="path-4_25_" fill="#000000"></path>
            <path d="M13.111,9.777 C13.111,10.715 12.352,11.476 11.414,11.476 C10.477,11.476 9.717,10.715 9.717,9.777 C9.717,8.838 10.477,8.078 11.414,8.078 C12.352,8.078 13.111,8.839 13.111,9.777 Z" id="path-5_25_" fill="#000000"></path>
            <path d="M18.769,9.777 C18.769,10.715 18.009,11.476 17.072,11.476 C16.134,11.476 15.374,10.715 15.374,9.777 C15.374,8.838 16.134,8.078 17.072,8.078 C18.009,8.078 18.769,8.839 18.769,9.777 Z" id="path-6_25_" fill="#000000"></path>
            <path d="M24.427,9.777 C24.427,10.715 23.667,11.476 22.729,11.476 C21.792,11.476 21.032,10.715 21.032,9.777 C21.032,8.838 21.792,8.078 22.729,8.078 C23.667,8.078 24.427,8.839 24.427,9.777 Z" id="path-7_25_" fill="#000000"></path>
            <g id="magnifying-glass" transform="translate(22.000000, 24.000000)" fill="#000000">
                <path d="M16.0235039,14.241564 C18.8396243,10.1734326 17.897778,4.54026448 13.9211682,1.66001918 C9.94455833,-1.22022612 4.43812104,-0.257391548 1.62267329,3.81142816 C-1.19277447,7.87955969 -0.251600836,13.5120395 3.72568169,16.3922848 C6.56400277,18.4480298 10.3165878,18.606323 13.3103135,16.7976528 L19.8151079,23.4122376 C20.5174564,24.1686031 21.6860185,24.1988853 22.4253678,23.4803725 C23.1647172,22.7625478 23.1943181,21.5670912 22.4926427,20.8107258 C22.4704419,20.7866377 22.448914,20.7646143 22.4253678,20.7419026 L16.0235039,14.241564 Z M8.81770659,14.8582188 C5.67530352,14.858907 3.12760914,12.2546422 3.12559072,9.03991668 C3.12491815,5.82519119 5.67059425,3.2188616 8.81367002,3.21748468 C11.9520365,3.21610868 14.4983855,5.81624423 14.5044487,9.02684026 C14.5098222,12.2422539 11.9654916,14.8527128 8.82174299,14.8582188 C8.82039758,14.8582188 8.81972471,14.8582188 8.81770659,14.8582188 Z" id="Shape"></path>
            </g>
        </g>
    </g>
</svg>