<?xml version="1.0" encoding="UTF-8"?>
<svg width="65px" height="59px" viewBox="0 0 65 59" version="1.1" xmlns="http://www.w3.org/2000/svg" xmlns:xlink="http://www.w3.org/1999/xlink">
    <!-- Generator: Sketch 63.1 (92452) - https://sketch.com -->
    <title>Tabs</title>
    <desc>Created with Sketch.</desc>
    <g id="Page-1" stroke="none" stroke-width="1" fill="none" fill-rule="evenodd">
        <g id="Icons-dark" transform="translate(-29.000000, -101.000000)" fill-rule="nonzero">
            <g id="Tabs" transform="translate(29.000000, 101.000000)">
                <path d="M65,50.015 C65,54.437 61.418,58.022 57,58.022 L15,58.022 C10.581,58.022 7,54.437 7,50.015 L7,13.987 C7,9.565 10.581,5.981 15,5.981 L57,5.981 C61.418,5.981 65,9.565 65,13.987 L65,50.015 Z" id="path-1_15_" fill="#22C1C3"></path>
                <path d="M65,18.991 L65,13.264 C65,9.011 61.305,5.981 57.055,5.981 L14.735,5.981 C10.485,5.981 7,9.011 7,13.264 L7,18.991 L65,18.991 Z" id="path-2_15_" fill="#FDBB2D"></path>
                <path d="M51.5,56.02 L9.5,56.02 C4.262,56.02 0,51.755 0,46.513 L0,10.485 C0,5.242 4.262,0.977 9.5,0.977 L51.5,0.977 C56.738,0.977 61,5.242 61,10.485 L61,46.513 C61,51.755 56.738,56.02 51.5,56.02 Z M9.5,3.979 C5.916,3.979 3,6.898 3,10.485 L3,46.513 C3,50.099 5.916,53.018 9.5,53.018 L51.5,53.018 C55.084,53.018 58,50.099 58,46.513 L58,10.485 C58,6.898 55.084,3.979 51.5,3.979 L9.5,3.979 Z" id="path-3_15_" fill="#000000"></path>
                <path d="M59.5,17.99 L1.5,17.99 C0.671,17.99 0,17.318 0,16.489 L0,10.376 C0,5.281 4.325,0.977 9.445,0.977 L51.765,0.977 C56.771,0.977 61,5.281 61,10.376 L61,16.489 C61,17.319 60.329,17.99 59.5,17.99 Z M3,14.988 L58,14.988 L58,10.376 C58,6.908 55.145,3.979 51.765,3.979 L9.445,3.979 C6.012,3.979 3,6.968 3,10.376 L3,14.988 Z" id="path-4_15_" fill="#000000"></path>
                <path d="M12.961,9.877 C12.961,10.815 12.201,11.575 11.264,11.575 C10.326,11.575 9.566,10.815 9.566,9.877 C9.566,8.938 10.326,8.178 11.264,8.178 C12.201,8.178 12.961,8.938 12.961,9.877 Z" id="path-5_15_" fill="#000000"></path>
                <path d="M18.619,9.877 C18.619,10.815 17.859,11.575 16.921,11.575 C15.984,11.575 15.224,10.815 15.224,9.877 C15.224,8.938 15.984,8.178 16.921,8.178 C17.859,8.178 18.619,8.938 18.619,9.877 Z" id="path-6_15_" fill="#000000"></path>
                <path d="M24.277,9.877 C24.277,10.815 23.517,11.575 22.58,11.575 C21.642,11.575 20.882,10.815 20.882,9.877 C20.882,8.938 21.642,8.178 22.58,8.178 C23.517,8.178 24.277,8.938 24.277,9.877 Z" id="path-7_15_" fill="#000000"></path>
                <path d="M41.5,55.52 C40.671,55.52 40,54.847 40,54.018 L40,16.99 C40,16.161 40.671,15.488 41.5,15.488 C42.329,15.488 43,16.161 43,16.99 L43,54.018 C43,54.847 42.329,55.52 41.5,55.52 Z" id="path-8_14_" fill="#000000"></path>
                <path d="M55,26.997 L47,26.997 C46.171,26.997 45.5,26.325 45.5,25.496 C45.5,24.667 46.171,23.995 47,23.995 L55,23.995 C55.829,23.995 56.5,24.667 56.5,25.496 C56.5,26.325 55.829,26.997 55,26.997 Z" id="path-9_14_" fill="#000000"></path>
                <path d="M55,36.004 L47,36.004 C46.171,36.004 45.5,35.332 45.5,34.503 C45.5,33.674 46.171,33.002 47,33.002 L55,33.002 C55.829,33.002 56.5,33.674 56.5,34.503 C56.5,35.332 55.829,36.004 55,36.004 Z" id="path-10_8_" fill="#000000"></path>
                <path d="M55,45.012 L47,45.012 C46.171,45.012 45.5,44.339 45.5,43.51 C45.5,42.682 46.171,42.009 47,42.009 L55,42.009 C55.829,42.009 56.5,42.682 56.5,43.51 C56.5,44.339 55.829,45.012 55,45.012 Z" id="path-11_1_" fill="#000000"></path>
            </g>
        </g>
    </g>
</svg>