<?xml version="1.0" encoding="UTF-8"?>
<svg width="65px" height="59px" viewBox="0 0 65 59" version="1.1" xmlns="http://www.w3.org/2000/svg" xmlns:xlink="http://www.w3.org/1999/xlink">
    <!-- Generator: Sketch 63.1 (92452) - https://sketch.com -->
    <title>Heading</title>
    <desc>Created with Sketch.</desc>
    <g id="Page-1" stroke="none" stroke-width="1" fill="none" fill-rule="evenodd">
        <g id="Icons-dark" transform="translate(-29.000000, -18.000000)" fill-rule="nonzero">
            <g id="Heading" transform="translate(29.000000, 18.000000)">
                <path d="M65,50.016 C65,54.438 61.418,58.022 57,58.022 L15,58.022 C10.582,58.022 7,54.438 7,50.016 L7,13.988 C7,9.566 10.582,5.981 15,5.981 L57,5.981 C61.418,5.981 65,9.566 65,13.988 L65,50.016 Z" id="path-1_11_" fill="#22C1C3"></path>
                <path d="M65,13.165 C65,8.911 61.305,5.981 57.056,5.981 L14.734,5.981 C10.485,5.981 7,8.911 7,13.165 L7,18.992 L65,18.992 L65,13.165 Z" id="path-2_11_" fill="#FDBB2D"></path>
                <path d="M51.5,56.021 L9.5,56.021 C4.262,56.021 0,51.755 0,46.513 L0,10.485 C0,5.243 4.262,0.978 9.5,0.978 L51.5,0.978 C56.738,0.978 61,5.243 61,10.485 L61,46.513 C61,51.755 56.738,56.021 51.5,56.021 Z M9.5,3.98 C5.916,3.98 3,6.898 3,10.485 L3,46.513 C3,50.1 5.916,53.018 9.5,53.018 L51.5,53.018 C55.084,53.018 58,50.1 58,46.513 L58,10.485 C58,6.898 55.084,3.98 51.5,3.98 L9.5,3.98 Z" id="path-3_11_" fill="#000000"></path>
                <path d="M59.5,17.991 L1.5,17.991 C0.672,17.991 0,17.319 0,16.49 L0,10.277 C0,5.236 4.325,0.978 9.444,0.978 L51.766,0.978 C56.857,0.978 61,5.149 61,10.277 L61,16.49 C61,17.319 60.328,17.991 59.5,17.991 Z M3,14.988 L58,14.988 L58,10.277 C58,6.863 55.144,3.98 51.766,3.98 L9.444,3.98 C6.012,3.98 3,6.922 3,10.277 L3,14.988 Z" id="path-4_11_" fill="#000000"></path>
                <path d="M12.961,9.777 C12.961,10.715 12.201,11.476 11.264,11.476 C10.326,11.476 9.566,10.715 9.566,9.777 C9.566,8.839 10.326,8.078 11.264,8.078 C12.201,8.078 12.961,8.839 12.961,9.777 Z" id="path-5_11_" fill="#000000"></path>
                <path d="M18.619,9.777 C18.619,10.715 17.859,11.476 16.922,11.476 C15.984,11.476 15.225,10.715 15.225,9.777 C15.225,8.839 15.984,8.078 16.922,8.078 C17.859,8.078 18.619,8.839 18.619,9.777 Z" id="path-6_11_" fill="#000000"></path>
                <path d="M24.276,9.777 C24.276,10.715 23.517,11.476 22.579,11.476 C21.643,11.476 20.882,10.715 20.882,9.777 C20.882,8.839 21.643,8.078 22.579,8.078 C23.517,8.078 24.276,8.839 24.276,9.777 Z" id="path-7_11_" fill="#000000"></path>
                <path d="M28.252,41.085 L27.528,39.18 L21.365,39.18 L20.642,41.126 C20.358,41.885 20.117,42.397 19.918,42.662 C19.718,42.928 19.391,43.061 18.935,43.061 C18.549,43.061 18.208,42.919 17.912,42.637 C17.615,42.354 17.467,42.033 17.467,41.674 C17.467,41.467 17.502,41.254 17.57,41.033 C17.64,40.812 17.753,40.505 17.912,40.112 L21.789,30.26 C21.899,29.977 22.032,29.638 22.187,29.241 C22.343,28.845 22.508,28.515 22.684,28.253 C22.859,27.991 23.091,27.778 23.377,27.617 C23.662,27.454 24.016,27.373 24.437,27.373 C24.863,27.373 25.221,27.454 25.507,27.617 C25.793,27.778 26.023,27.987 26.199,28.243 C26.375,28.498 26.523,28.772 26.643,29.065 C26.765,29.358 26.918,29.75 27.104,30.24 L31.064,40.029 C31.375,40.774 31.529,41.316 31.529,41.653 C31.529,42.005 31.383,42.328 31.09,42.621 C30.797,42.914 30.444,43.061 30.03,43.061 C29.789,43.061 29.582,43.018 29.41,42.932 C29.237,42.845 29.093,42.728 28.976,42.58 C28.858,42.431 28.732,42.204 28.599,41.897 C28.464,41.59 28.349,41.319 28.252,41.085 Z M22.172,36.873 L26.701,36.873 L24.416,30.612 L22.172,36.873 Z" id="path-8_10_" fill="#000000"></path>
                <path d="M40.723,41.467 C40.04,41.999 39.38,42.397 38.742,42.662 C38.104,42.928 37.39,43.061 36.597,43.061 C35.873,43.061 35.237,42.918 34.689,42.632 C34.141,42.345 33.719,41.957 33.423,41.467 C33.126,40.978 32.977,40.446 32.977,39.874 C32.977,39.101 33.223,38.442 33.712,37.897 C34.201,37.352 34.873,36.987 35.728,36.8 C35.907,36.759 36.352,36.666 37.062,36.521 C37.772,36.376 38.381,36.243 38.887,36.123 C39.393,36.002 39.943,35.855 40.536,35.683 C40.502,34.938 40.352,34.391 40.087,34.042 C39.821,33.694 39.271,33.52 38.437,33.52 C37.721,33.52 37.181,33.62 36.819,33.82 C36.457,34.02 36.147,34.32 35.889,34.72 C35.63,35.12 35.447,35.384 35.341,35.512 C35.233,35.64 35.005,35.703 34.653,35.703 C34.336,35.703 34.061,35.602 33.831,35.398 C33.6,35.195 33.484,34.934 33.484,34.617 C33.484,34.12 33.66,33.637 34.012,33.168 C34.363,32.699 34.911,32.313 35.656,32.009 C36.4,31.706 37.327,31.554 38.437,31.554 C39.678,31.554 40.653,31.7 41.363,31.993 C42.073,32.287 42.575,32.751 42.868,33.385 C43.161,34.02 43.308,34.862 43.308,35.91 C43.308,36.573 43.306,37.135 43.303,37.597 C43.299,38.059 43.294,38.573 43.287,39.139 C43.287,39.67 43.375,40.224 43.551,40.8 C43.727,41.376 43.814,41.747 43.814,41.912 C43.814,42.202 43.678,42.466 43.405,42.704 C43.134,42.942 42.825,43.061 42.48,43.061 C42.19,43.061 41.904,42.924 41.622,42.652 C41.339,42.38 41.039,41.985 40.723,41.467 Z M40.536,37.38 C40.123,37.531 39.521,37.692 38.732,37.861 C37.942,38.03 37.396,38.154 37.093,38.234 C36.79,38.313 36.5,38.468 36.225,38.699 C35.949,38.931 35.811,39.253 35.811,39.667 C35.811,40.095 35.973,40.459 36.297,40.759 C36.621,41.059 37.045,41.209 37.568,41.209 C38.127,41.209 38.643,41.086 39.114,40.841 C39.587,40.596 39.933,40.281 40.153,39.894 C40.409,39.467 40.536,38.763 40.536,37.783 L40.536,37.38 L40.536,37.38 Z" id="path-9_10_" fill="#000000"></path>
            </g>
        </g>
    </g>
</svg>