<?xml version="1.0" encoding="UTF-8"?>
<svg width="65px" height="59px" viewBox="0 0 65 59" version="1.1" xmlns="http://www.w3.org/2000/svg" xmlns:xlink="http://www.w3.org/1999/xlink">
    <title>wdes-widget-world-map</title>
    <g id="Page-1" stroke="none" stroke-width="1" fill="none" fill-rule="evenodd">
        <g id="wdes-widget-world-map" fill-rule="nonzero">
            <path d="M65,50.016 C65,54.437 61.418,58.022 57,58.022 L15,58.022 C10.581,58.022 7,54.437 7,50.016 L7,13.987 C7,9.565 10.581,5.981 15,5.981 L57,5.981 C61.418,5.981 65,9.565 65,13.987 L65,50.016 Z" id="path-1_25_" fill="#22C1C3"></path>
            <path d="M65,18.992 L65,13.165 C65,8.912 61.455,5.982 57.206,5.982 L14.885,5.982 C10.635,5.982 7,8.912 7,13.165 L7,18.992 L65,18.992 L65,18.992 Z" id="path-2_25_" fill="#FDBB2D"></path>
            <path d="M51.5,56.021 L9.5,56.021 C4.262,56.021 0,51.756 0,46.514 L0,10.485 C0,5.242 4.262,0.977 9.5,0.977 L51.5,0.977 C56.738,0.977 61,5.242 61,10.485 L61,46.513 C61,51.755 56.738,56.021 51.5,56.021 Z M9.5,3.98 C5.916,3.98 3,6.898 3,10.485 L3,46.513 C3,50.1 5.916,53.018 9.5,53.018 L51.5,53.018 C55.084,53.018 58,50.1 58,46.513 L58,10.485 C58,6.898 55.084,3.98 51.5,3.98 L9.5,3.98 Z" id="path-3_25_" fill="#000000"></path>
            <path d="M59.5,17.992 L1.5,17.992 C0.671,17.992 0,17.32 0,16.49 L0,10.277 C0,5.237 4.394,0.978 9.595,0.978 L51.915,0.978 C56.925,0.978 61,5.15 61,10.277 L61,16.49 C61,17.319 60.329,17.992 59.5,17.992 Z M3,14.989 L58,14.989 L58,10.277 C58,6.806 55.27,3.980999 51.915,3.980999 L9.595,3.980999 C6.081,3.98 3,6.922 3,10.276 L3,14.989 Z" id="path-4_25_" fill="#000000"></path>
            <path d="M13.111,9.777 C13.111,10.715 12.352,11.476 11.414,11.476 C10.477,11.476 9.717,10.715 9.717,9.777 C9.717,8.838 10.477,8.078 11.414,8.078 C12.352,8.078 13.111,8.839 13.111,9.777 Z" id="path-5_25_" fill="#000000"></path>
            <path d="M18.769,9.777 C18.769,10.715 18.009,11.476 17.072,11.476 C16.134,11.476 15.374,10.715 15.374,9.777 C15.374,8.838 16.134,8.078 17.072,8.078 C18.009,8.078 18.769,8.839 18.769,9.777 Z" id="path-6_25_" fill="#000000"></path>
            <path d="M24.427,9.777 C24.427,10.715 23.667,11.476 22.729,11.476 C21.792,11.476 21.032,10.715 21.032,9.777 C21.032,8.838 21.792,8.078 22.729,8.078 C23.667,8.078 24.427,8.839 24.427,9.777 Z" id="path-7_25_" fill="#000000"></path>
            <g id="plugins" transform="translate(31.615100, 36.777778) rotate(-300.000000) translate(-31.615100, -36.777778) translate(21.615100, 20.777778)" fill="#000000">
                <path d="M19.375,9.95555556 L17.2030029,9.95555556 L17.2030029,2.33333333 C17.2030029,1.04671875 16.1516113,-1.10134124e-13 14.8592529,-1.10134124e-13 C13.5668945,-1.10134124e-13 12.5155029,1.04671875 12.5155029,2.33333333 L12.5155029,9.95555556 L7.48455811,9.95555556 L7.48455811,2.33333333 C7.48455811,1.04671875 6.4331665,-1.10134124e-13 5.14080811,-1.10134124e-13 C3.84844971,-1.10134124e-13 2.79705811,1.04671875 2.79705811,2.33333333 L2.79705811,9.95555556 L0.625,9.95555556 C0.279846191,9.95555556 1.15463195e-13,10.234158 1.15463195e-13,10.5777778 L1.15463195e-13,20.2607465 C1.15463195e-13,22.4696354 1.80505371,24.2666667 4.02380371,24.2666667 L5.15625,24.2666667 L5.15625,26.4444444 C5.15625,26.7880642 5.43609619,27.0666667 5.78125,27.0666667 L7.8125,27.0666667 L7.8125,30.4888889 C7.8125,30.8325087 8.09234619,31.1111111 8.4375,31.1111111 L11.5625,31.1111111 C11.9075928,31.1111111 12.1875,30.8325087 12.1875,30.4888889 L12.1875,27.0666667 L14.21875,27.0666667 C14.5639038,27.0666667 14.84375,26.7880642 14.84375,26.4444444 L14.84375,24.2666667 L15.9762573,24.2666667 C18.1949463,24.2666667 20,22.4696354 20,20.2607465 L20,10.5777778 C20,10.234158 19.7201538,9.95555556 19.375,9.95555556 Z M13.7655029,2.33333333 C13.7655029,1.73292535 14.2561646,1.24444444 14.8592529,1.24444444 C15.4623413,1.24444444 15.9530029,1.73292535 15.9530029,2.33333333 L15.9530029,9.95555556 L13.7655029,9.95555556 L13.7655029,2.33333333 L13.7655029,2.33333333 Z M4.04705811,2.33333333 C4.04705811,1.73292535 4.53771973,1.24444444 5.14080811,1.24444444 C5.74389648,1.24444444 6.23455811,1.73292535 6.23455811,2.33333333 L6.23455811,9.95555556 L4.04705811,9.95555556 L4.04705811,2.33333333 Z M10.9375,29.8666667 L9.0625,29.8666667 L9.0625,27.0666667 L10.9375,27.0666667 L10.9375,29.8666667 Z M13.59375,25.8222222 L6.40625,25.8222222 L6.40625,24.2666667 L13.59375,24.2666667 L13.59375,25.8222222 Z M18.75,12.863776 L15.2967529,12.863776 C14.9515991,12.863776 14.6717529,13.1423785 14.6717529,13.4859983 C14.6717529,13.8296181 14.9516602,14.1082205 15.2967529,14.1082205 L18.75,14.1082205 L18.75,20.2607465 C18.75,21.7834288 17.5056763,23.0222222 15.9762573,23.0222222 L4.02380371,23.0222222 C2.49432373,23.0222222 1.25,21.7834288 1.25,20.2607465 L1.25,14.1082205 L10,14.1082205 C10.3451538,14.1082205 10.625,13.8296181 10.625,13.4859983 C10.625,13.1423785 10.3451538,12.863776 10,12.863776 L1.25,12.863776 L1.25,11.2 L18.75,11.2 L18.75,12.863776 Z" id="Shape"></path>
                <path d="M12.7160494,14.4444444 L12.8395062,14.4444444 C13.1122203,14.4444444 13.3333333,14.1956923 13.3333333,13.8888889 C13.3333333,13.5820855 13.1122685,13.3333333 12.8395062,13.3333333 L12.7160494,13.3333333 C12.4433353,13.3333333 12.2222222,13.5820855 12.2222222,13.8888889 C12.2222222,14.1956923 12.4433353,14.4444444 12.7160494,14.4444444 Z" id="Path"></path>
            </g>
        </g>
    </g>
</svg>