<?xml version="1.0" encoding="UTF-8"?>
<svg width="65px" height="59px" viewBox="0 0 65 59" version="1.1" xmlns="http://www.w3.org/2000/svg" xmlns:xlink="http://www.w3.org/1999/xlink">
    <title>wdes-widget-blog</title>
    <g id="Page-1" stroke="none" stroke-width="1" fill="none" fill-rule="evenodd">
        <g id="wdes-widget-blog" fill-rule="nonzero">
            <path d="M65,50.016 C65,54.437 61.418,58.022 57,58.022 L15,58.022 C10.581,58.022 7,54.437 7,50.016 L7,13.987 C7,9.565 10.581,5.981 15,5.981 L57,5.981 C61.418,5.981 65,9.565 65,13.987 L65,50.016 Z" id="path-1_25_" fill="#22C1C3"></path>
            <path d="M65,18.992 L65,13.165 C65,8.912 61.455,5.982 57.206,5.982 L14.885,5.982 C10.635,5.982 7,8.912 7,13.165 L7,18.992 L65,18.992 L65,18.992 Z" id="path-2_25_" fill="#FDBB2D"></path>
            <path d="M51.5,56.021 L9.5,56.021 C4.262,56.021 0,51.756 0,46.514 L0,10.485 C0,5.242 4.262,0.977 9.5,0.977 L51.5,0.977 C56.738,0.977 61,5.242 61,10.485 L61,46.513 C61,51.755 56.738,56.021 51.5,56.021 Z M9.5,3.98 C5.916,3.98 3,6.898 3,10.485 L3,46.513 C3,50.1 5.916,53.018 9.5,53.018 L51.5,53.018 C55.084,53.018 58,50.1 58,46.513 L58,10.485 C58,6.898 55.084,3.98 51.5,3.98 L9.5,3.98 Z" id="path-3_25_" fill="#000000"></path>
            <path d="M59.5,17.992 L1.5,17.992 C0.671,17.992 0,17.32 0,16.49 L0,10.277 C0,5.237 4.394,0.978 9.595,0.978 L51.915,0.978 C56.925,0.978 61,5.15 61,10.277 L61,16.49 C61,17.319 60.329,17.992 59.5,17.992 Z M3,14.989 L58,14.989 L58,10.277 C58,6.806 55.27,3.9809995 51.915,3.9809995 L9.595,3.9809995 C6.081,3.98 3,6.922 3,10.276 L3,14.989 Z" id="path-4_25_" fill="#000000"></path>
            <path d="M13.111,9.777 C13.111,10.715 12.352,11.476 11.414,11.476 C10.477,11.476 9.717,10.715 9.717,9.777 C9.717,8.838 10.477,8.078 11.414,8.078 C12.352,8.078 13.111,8.839 13.111,9.777 Z" id="path-5_25_" fill="#000000"></path>
            <path d="M18.769,9.777 C18.769,10.715 18.009,11.476 17.072,11.476 C16.134,11.476 15.374,10.715 15.374,9.777 C15.374,8.838 16.134,8.078 17.072,8.078 C18.009,8.078 18.769,8.839 18.769,9.777 Z" id="path-6_25_" fill="#000000"></path>
            <path d="M24.427,9.777 C24.427,10.715 23.667,11.476 22.729,11.476 C21.792,11.476 21.032,10.715 21.032,9.777 C21.032,8.838 21.792,8.078 22.729,8.078 C23.667,8.078 24.427,8.839 24.427,9.777 Z" id="path-7_25_" fill="#000000"></path>
            <g id="options" transform="translate(12.000000, 28.000000)" fill="#000000">
                <path d="M29.8666667,10.24 C29.6192,10.24 29.3717333,10.16832 29.1566933,10.02496 L25.3166933,7.46496 C24.7278933,7.07242667 24.5691733,6.27882667 24.9617067,5.69002667 C25.35424,5.10293333 26.14784,4.94250667 26.73664,5.33504 L29.8666667,7.42229333 L32.9966933,5.33504 C33.5837867,4.9408 34.3790933,5.10122667 34.7716267,5.69002667 C35.16416,6.27882667 35.00544,7.07242667 34.41664,7.46496 L30.57664,10.02496 C30.3616,10.16832 30.1141333,10.24 29.8666667,10.24 Z" id="Path"></path>
                <path d="M36.2666667,16.2133333 L4.69333333,16.2133333 C2.10432,16.2133333 0,14.1090133 0,11.52 L0,4.69333333 C0,2.10432 2.10432,0 4.69333333,0 L36.2666667,0 C38.85568,0 40.96,2.10432 40.96,4.69333333 L40.96,11.52 C40.96,14.1090133 38.85568,16.2133333 36.2666667,16.2133333 Z M4.69333333,2.56 C3.51744,2.56 2.56,3.51744 2.56,4.69333333 L2.56,11.52 C2.56,12.6958933 3.51744,13.6533333 4.69333333,13.6533333 L36.2666667,13.6533333 C37.44256,13.6533333 38.4,12.6958933 38.4,11.52 L38.4,4.69333333 C38.4,3.51744 37.44256,2.56 36.2666667,2.56 L4.69333333,2.56 Z" id="Shape"></path>
                <path d="M20.9066667,16.2133333 C20.2001067,16.2133333 19.6266667,15.6398933 19.6266667,14.9333333 L19.6266667,1.28 C19.6266667,0.57344 20.2001067,0 20.9066667,0 C21.6132267,0 22.1866667,0.57344 22.1866667,1.28 L22.1866667,14.9333333 C22.1866667,15.6398933 21.6132267,16.2133333 20.9066667,16.2133333 Z" id="Path"></path>
            </g>
        </g>
    </g>
</svg>