<svg width="512.00003" height="512" xmlns="http://www.w3.org/2000/svg">

 <g>
  <title>background</title>
  <rect fill="none" id="canvas_background" height="402" width="582" y="-1" x="-1"/>
 </g>
 <g>
  <title>Layer 1</title>
  <path fill="#ffffff" id="path21524" d="m274.707676,55.298152l-44.735036,43.660442l28.220457,0l3.316949,0l0,3.237252l0,105.579942l13.19763,12.880626l13.636366,-13.308802l0,-105.545692l0,-3.25441l3.334573,0l27.342897,0l-44.313836,-43.249359zm20.287866,49.741086l0,95.816658l64.426213,-62.878624l-33.748753,-32.938034l-30.677459,0zm40.101803,0l31.397054,30.642813l2.351699,2.295221l-2.351699,2.295221l-71.498857,69.781412l0,11.921426l12.478102,0l71.375963,-69.644399l2.35171,-2.29521l2.35171,2.29521l31.256636,30.5058l0,-77.797495l-79.712318,0zm-199.84226,0.411083l0,76.75269l30.466865,-29.735043l2.351699,-2.29521l2.35171,2.29521l71.2356,69.507364l13.197619,0l0,-11.493175l-71.937593,-70.209663l-2.351699,-2.295221l2.351699,-2.295221l30.975821,-30.231731l-78.641722,0zm88.066088,0l-33.32752,32.526952l64.864926,63.306854l0,-95.833805l-31.537406,0zm157.880145,53.766275l-64.30333,62.758736l97.911676,0l0,-29.957737l-33.608346,-32.800999zm-213.127668,0.137024l-32.818564,32.030253l0,30.591459l96.963951,0l-64.145387,-62.621713zm-39.470031,38.52197l-45.103618,44.020127l45.103618,44.020235l0,-28.210623l0,-3.254399l3.334507,0l108.143326,0l12.706232,-12.401021l-13.917181,-13.582914l-106.932377,0l-3.334507,0l0,-3.254356l0,-27.337049zm292.857478,0.633722l0,26.703327l0,3.254356l-3.316982,0l-107.897627,0l-13.759227,13.428722l12.864209,12.555213l108.792645,0l3.316982,0l0,3.254399l0,27.576847l44.454288,-43.386459l-44.454288,-43.386405zm-286.206011,62.43328l0,31.465022l32.958971,32.167288l65.215928,-63.63231l-98.174899,0zm107.599276,0l-72.271048,70.517962l-2.369257,2.295221l-2.351699,-2.295221l-30.607272,-29.872067l0,76.290243l77.904613,0l-30.221166,-29.495235l-2.351699,-2.29521l2.351699,-2.29521l72.130652,-70.398041l0,-12.452429l-12.214823,0l0,-0.000011zm52.14118,0l0,13.634258l70.91967,69.216213l2.351766,2.295221l-2.351766,2.29521l-30.22111,29.495235l79.115562,0l0,-76.92403l-31.256636,30.505854l-2.35171,2.295221l-2.35171,-2.295221l-72.271048,-70.517962l-11.583017,0zm21.007361,0l65.198414,63.63231l33.608346,-32.801064l0,-30.831246l-98.80676,0zm-41.57602,2.740554l-12.706232,12.40101l0,105.048983l0,3.237306l-3.334507,0l-29.16816,0l45.208899,44.105786l45.191385,-44.105786l-27.939654,0l-3.334573,0l0,-3.237306l0,-103.867089l-13.917159,-13.582904zm-19.357699,18.892726l-65.075532,63.512411l32.572865,31.790445l32.502667,0l0,-95.302857zm39.926357,1.18185l0,94.121006l31.27416,0l32.572865,-31.790445l-63.847025,-62.330561z"/>
 </g>
</svg>