<?xml version="1.0" encoding="iso-8859-1"?>
<!-- Generator: Adobe Illustrator 19.0.0, SVG Export Plug-In . SVG Version: 6.00 Build 0)  -->
<svg version="1.1" id="Capa_1" xmlns="http://www.w3.org/2000/svg" xmlns:xlink="http://www.w3.org/1999/xlink" x="0px" y="0px"
	 viewBox="0 0 512 512" style="enable-background:new 0 0 512 512;" xml:space="preserve">
<path style="fill:#EC3E42;" d="M423.212,504.498H88.786c-15.495,0-28.057-12.561-28.057-28.057V35.559
	c0-15.495,12.561-28.057,28.057-28.057h334.427c15.495,0,28.057,12.561,28.057,28.057v440.883
	C451.269,491.937,438.708,504.498,423.212,504.498z"/>
<path style="fill:#D8353D;" d="M423.212,7.502h-50.989c15.495,0,28.057,12.561,28.057,28.056v440.883
	c0,15.495-12.561,28.056-28.057,28.056h50.989c15.495,0,28.057-12.561,28.057-28.056V35.558
	C451.269,20.063,438.708,7.502,423.212,7.502z"/>
<g>
	<circle style="fill:#DFEAEF;" cx="114.629" cy="61.953" r="20.39"/>
	<circle style="fill:#DFEAEF;" cx="397.369" cy="61.953" r="20.39"/>
	<circle style="fill:#DFEAEF;" cx="114.629" cy="450.05" r="20.39"/>
	<circle style="fill:#DFEAEF;" cx="397.369" cy="450.05" r="20.39"/>
	<path style="fill:#DFEAEF;" d="M360.142,394.471H151.857c-6.757,0-12.234-5.477-12.234-12.234V129.763
		c0-6.757,5.477-12.234,12.234-12.234h208.285c6.757,0,12.234,5.477,12.234,12.234v252.474
		C372.376,388.993,366.898,394.471,360.142,394.471z"/>
</g>
<path style="fill:#BFCFD6;" d="M360.142,117.529h-52.541c6.757,0,12.234,5.477,12.234,12.234v252.474
	c0,6.757-5.477,12.234-12.234,12.234h52.541c6.757,0,12.234-5.477,12.234-12.234V129.763
	C372.376,123.007,366.898,117.529,360.142,117.529z"/>
<g>
	<path style="fill:#FFFFFF;" d="M94.241,61.953c0,11.261,9.129,20.39,20.39,20.39V41.562C103.37,41.562,94.241,50.691,94.241,61.953
		z"/>
	<path style="fill:#FFFFFF;" d="M376.977,61.953c0,11.261,9.129,20.39,20.39,20.39V41.562
		C386.106,41.562,376.977,50.691,376.977,61.953z"/>
	<path style="fill:#FFFFFF;" d="M376.977,450.047c0,11.261,9.129,20.39,20.39,20.39v-40.781
		C386.106,429.657,376.977,438.786,376.977,450.047z"/>
	<path style="fill:#FFFFFF;" d="M94.241,450.047c0,11.261,9.129,20.39,20.39,20.39v-40.781
		C103.37,429.657,94.241,438.786,94.241,450.047z"/>
</g>
<path d="M196.108,275.642c-10.588,0-13.39-7.332-17.646-7.332c-3.218,0-5.916,3.999-5.916,6.666
	c0,5.523,10.379,11.808,23.978,11.808c14.325,0,24.704-7.047,24.704-20.664c0-24.662-33.32-20.568-33.32-32.375
	c0-4.57,4.256-7.332,11.729-7.332c8.719,0,11.106,3.618,14.325,3.618c3.736,0,5.397-4.38,5.397-6.571
	c0-6.284-13.597-7.617-19.722-7.617c-11.937,0-25.224,4.856-25.224,19.045c0,22.567,33.321,18.187,33.321,32.471
	C207.734,273.071,202.337,275.642,196.108,275.642z"/>
<path d="M250.292,275.642c-10.588,0-13.39-7.332-17.646-7.332c-3.218,0-5.916,3.999-5.916,6.666
	c0,5.523,10.379,11.808,23.978,11.808c14.325,0,24.704-7.047,24.704-20.664c0-24.662-33.32-20.568-33.32-32.375
	c0-4.57,4.256-7.332,11.729-7.332c8.719,0,11.106,3.618,14.325,3.618c3.736,0,5.397-4.38,5.397-6.571
	c0-6.284-13.597-7.617-19.722-7.617c-11.937,0-25.224,4.856-25.224,19.045c0,22.567,33.321,18.187,33.321,32.471
	C261.916,273.071,256.519,275.642,250.292,275.642z"/>
<path d="M290.563,285.925h18.373c13.702,0,24.394-5.904,24.394-21.806v-25.996c0-15.902-10.692-21.806-24.394-21.806h-18.373
	c-3.529,0-5.917,1.809-5.917,3.81v61.99C284.647,284.116,287.034,285.925,290.563,285.925z M298.141,227.173h10.795
	c6.851,0,10.899,3.523,10.899,10.951v25.996c0,7.428-4.048,10.951-10.899,10.951h-10.795V227.173z"/>
<path d="M451.269,152.288c-4.144,0-7.502,3.359-7.502,7.502v316.652c0,11.334-9.22,20.555-20.554,20.555H88.786
	c-11.334,0-20.555-9.221-20.555-20.555v-99.937c0-4.143-3.359-7.502-7.502-7.502s-7.502,3.359-7.502,7.502v99.937
	C53.228,496.048,69.179,512,88.786,512h334.427c19.606,0,35.557-15.952,35.557-35.558V159.79
	C458.77,155.647,455.412,152.288,451.269,152.288z"/>
<path d="M423.213,0H88.786C69.179,0,53.228,15.952,53.228,35.558v300.936c0,4.143,3.359,7.502,7.502,7.502s7.502-3.359,7.502-7.502
	V35.558c0-11.334,9.221-20.555,20.555-20.555h334.427c11.334,0,20.554,9.221,20.554,20.555v84.222c0,4.143,3.358,7.502,7.502,7.502
	s7.502-3.359,7.502-7.502V35.558C458.77,15.952,442.819,0,423.213,0z"/>
<path d="M169.026,80.571c-4.143,0-7.502,3.359-7.502,7.502v21.955h-9.667c-10.883,0-19.736,8.853-19.736,19.736v252.474
	c0,10.883,8.853,19.736,19.736,19.736h9.667v21.955c0,4.143,3.359,7.502,7.502,7.502s7.502-3.359,7.502-7.502v-21.955h28.483v21.955
	c0,4.143,3.359,7.502,7.502,7.502s7.502-3.359,7.502-7.502v-21.955h28.483v21.955c0,4.143,3.359,7.502,7.502,7.502
	c4.144,0,7.502-3.359,7.502-7.502v-21.955h28.484v21.955c0,4.143,3.358,7.502,7.502,7.502s7.502-3.359,7.502-7.502v-21.955h28.483
	v21.955c0,4.143,3.358,7.502,7.502,7.502s7.502-3.359,7.502-7.502v-21.955h9.668c10.882,0,19.735-8.853,19.735-19.736V129.763
	c0-10.883-8.854-19.736-19.735-19.736h-9.668V88.073c0-4.143-3.358-7.502-7.502-7.502s-7.502,3.359-7.502,7.502v21.955h-28.483
	V88.073c0-4.143-3.358-7.502-7.502-7.502s-7.502,3.359-7.502,7.502v21.955h-28.484V88.073c0-4.143-3.358-7.502-7.502-7.502
	c-4.143,0-7.502,3.359-7.502,7.502v21.955h-28.483V88.073c0-4.143-3.359-7.502-7.502-7.502s-7.502,3.359-7.502,7.502v21.955h-28.483
	V88.073C176.527,83.93,173.169,80.571,169.026,80.571z M360.142,125.031c2.609,0,4.732,2.123,4.732,4.732v252.474
	c0,2.61-2.123,4.732-4.732,4.732H151.857c-2.61,0-4.732-2.123-4.732-4.732V129.763c0-2.61,2.123-4.732,4.732-4.732H360.142z"/>
<path d="M114.632,34.061c-15.38,0-27.892,12.512-27.892,27.892s12.512,27.892,27.892,27.892s27.893-12.512,27.893-27.892
	S130.011,34.061,114.632,34.061z M114.632,74.841c-7.107,0-12.888-5.782-12.888-12.888s5.782-12.888,12.888-12.888
	c7.107,0,12.889,5.782,12.889,12.888S121.738,74.841,114.632,74.841z"/>
<path d="M397.367,34.061c-15.38,0-27.892,12.512-27.892,27.892s12.512,27.892,27.892,27.892s27.893-12.512,27.893-27.892
	S412.746,34.061,397.367,34.061z M397.367,74.841c-7.106,0-12.888-5.782-12.888-12.888s5.782-12.888,12.888-12.888
	c7.107,0,12.889,5.782,12.889,12.888S404.474,74.841,397.367,74.841z"/>
<path d="M114.632,477.939c15.38,0,27.893-12.512,27.893-27.892s-12.512-27.892-27.893-27.892c-15.38,0-27.892,12.512-27.892,27.892
	S99.252,477.939,114.632,477.939z M114.632,437.159c7.107,0,12.889,5.782,12.889,12.888c0,7.107-5.782,12.888-12.889,12.888
	c-7.107,0-12.888-5.782-12.888-12.888S107.525,437.159,114.632,437.159z"/>
<path d="M397.367,422.155c-15.38,0-27.892,12.512-27.892,27.892s12.512,27.892,27.892,27.892s27.893-12.512,27.893-27.892
	S412.746,422.155,397.367,422.155z M397.367,462.936c-7.106,0-12.888-5.782-12.888-12.888c0-7.107,5.782-12.888,12.888-12.888
	c7.107,0,12.889,5.782,12.889,12.888C410.256,457.154,404.474,462.936,397.367,462.936z"/>
<g>
</g>
<g>
</g>
<g>
</g>
<g>
</g>
<g>
</g>
<g>
</g>
<g>
</g>
<g>
</g>
<g>
</g>
<g>
</g>
<g>
</g>
<g>
</g>
<g>
</g>
<g>
</g>
<g>
</g>
</svg>
