<?xml version="1.0"?>
<svg width="24" height="24" xmlns="http://www.w3.org/2000/svg" xmlns:svg="http://www.w3.org/2000/svg">
 <title/>
 <g class="layer">
  <title>background</title>
  <rect fill="none" height="402" id="canvas_background" width="582" x="-1" y="-1"/>
 </g>
 <g class="layer">
  <title>Layer 1</title>
  <circle cx="2.5" cy="12" fill="#142745" id="svg_1" r="2.5"/>
  <circle cx="19.5" cy="2.5" fill="#142745" id="svg_2" r="2.5"/>
  <circle cx="19.5" cy="21.5" fill="#142745" id="svg_3" r="2.5"/>
  <path d="m10.76,15.8a5,5 0 0 1 0,-7.6a0.5,0.5 0 0 0 0.11,-0.63l-2,-3.49a0.5,0.5 0 0 0 -0.33,-0.24a0.5,0.5 0 0 0 -0.4,0.09a10,10 0 0 0 -3.59,4.83a0.5,0.5 0 0 0 0.15,0.55a3.45,3.45 0 0 1 0,5.38a0.5,0.5 0 0 0 -0.15,0.55a10,10 0 0 0 3.57,4.84a0.5,0.5 0 0 0 0.29,0.1l0.1,0a0.5,0.5 0 0 0 0.33,-0.24l2,-3.49a0.5,0.5 0 0 0 -0.08,-0.65z" fill="#142745" id="svg_4"/>
  <path d="m11.73,7.07a0.5,0.5 0 0 0 0.6,0.22a5,5 0 0 1 6.67,3.8a0.5,0.5 0 0 0 0.49,0.41l4,0a0.5,0.5 0 0 0 0.5,-0.55a9.88,9.88 0 0 0 -2.22,-5.26a0.5,0.5 0 0 0 -0.62,-0.12a3.45,3.45 0 0 1 -1.65,0.43a3.48,3.48 0 0 1 -3.5,-3.39a0.5,0.5 0 0 0 -0.42,-0.48a9.81,9.81 0 0 0 -5.65,0.73a0.5,0.5 0 0 0 -0.23,0.71l2.03,3.5z" fill="#142745" id="svg_5"/>
  <path d="m23.5,12.5l-4,0a0.5,0.5 0 0 0 -0.49,0.41a5,5 0 0 1 -6.64,3.8a0.5,0.5 0 0 0 -0.6,0.22l-2,3.5a0.5,0.5 0 0 0 0.23,0.71a9.81,9.81 0 0 0 5.65,0.73a0.5,0.5 0 0 0 0.42,-0.48a3.46,3.46 0 0 1 5.14,-3a0.5,0.5 0 0 0 0.62,-0.12a9.88,9.88 0 0 0 2.17,-5.22a0.5,0.5 0 0 0 -0.5,-0.55z" fill="#142745" id="svg_6"/>
 </g>
</svg>